<svg xmlns="http://www.w3.org/2000/svg" viewBox="55 67.8 149 97">
<!-- SVG created with Arrow, by QuiverAI (https://quiver.ai) -->
  <style type="text/css">.cls-0 {fill:#777777;}
.cls-1 {fill:url(#XMLID_5_);}
.cls-2 {fill:none;stroke:#777777;stroke-width:0.25;stroke-miterlimit:10;}
.cls-3 {fill:#F5A00E;}
.cls-4 {fill:#706F6F;}
.cls-5 {fill:#1ED40C;}
.cls-6 {fill:url(#SVGID_1_);}
.cls-7 {fill:#1D1D1B;}</style>
  <path class="cls-0" d="m64 145.7c-1-5.7-1.9-11-1.8-17.9 0-2.5 0.7-7.1 1.2-10.2 1.3-6.7 9.9-30.1 33.9-38.4 7.5-2.7 13.7-4.2 22.9-4.1 17 0.2 35.7 6.5 47.3 23.9l0.1 0.1-0.2 0.3c-1.1-1.6-6.1-8.8-16.4-14.8-8.9-5.2-18.9-8.2-30.4-8.5-7.8 0-14.3 0.9-21.4 3.4-20.1 7.3-32.6 24.3-35.1 36.4-2.8 12.9-2.3 19.5 0.3 29.7h-0.4z"/>
  <linearGradient id="XMLID_5_" x1="65.4" x2="162.5" y1="146.4" y2="146.4" gradientUnits="userSpaceOnUse">
    <stop stop-color="#159DB0" offset=".06564"/>
    <stop stop-color="#8CCB19" offset=".8091"/>
  </linearGradient>
  <polygon class="cls-1" points="65.4 145.8 65.4 147 162.5 146.8 162.5 145.9"/>
  <path class="cls-2" d="m80 89.4 4.5-0.4c7-0.2 11.6-1.5 19.2-3.8l5.3-2.2c6.8-2.7 9.8-4.6 12.1-5.9l-0.1-0.2-0.1 0.1"/>
  <path class="cls-0" d="m83 87.5c-3.2 2.4-8.6 7.5-9.9 10.2l0.3 0.3c2.3-3.1 6.8-7.5 7.3-8l3.7-0.4c6.8-0.5 9.9-1.2 17.5-3.5l5.4-1.8c6.4-2.6 10-4.1 13.1-6l1-0.6 0.6-0.3-1.6-0.1v0.3c-3.9 2.1-7.8 3.8-13.6 6.4l-5 1.7c-7.9 2.1-11.9 3-18.1 3.1l-0.7-1.3z"/>
  <path class="cls-0" d="m72.1 98.8h8c2.4 0 8-0.1 13.5-0.7 3.9-0.5 7.8-1.8 12.3-2.9l9.1-3.2c3.2-1.2 6.7-2.6 8.5-3.8l4.5-2.2c2.5-1.3 7.6-4.8 9.9-7l0.7-0.6 0.1 0.1-0.7 0.5c-3.5 3.1-6.3 4.9-9.6 6.9l-4.2 2.3c-3.3 1.9-6.6 3.2-9.2 4.3l-9 2.9-5.2 1.3c-1.7 0.5-3.8 1.2-7.2 1.7-2.1 0.3-13.3 1-21.4 0.9l-0.1-0.5z"/>
  <path class="cls-0" d="m65.4 111.8v-0.5l6.6 0.4c3.7 0.3 9 0.5 13 0.3l9.3-0.9 7.7-1.3 9.9-2.7 4.9-1.4c3.9-1.3 7.4-2.6 10.2-4l4.4-2.3c3-1.5 8.8-4.7 14.1-9l2-1.7c2.2-1.6-2 1.5 0-0.2l-2.3 1.9-2 1.6c-4.2 3.1-9.3 6-12.2 7.6l-4.5 2.2c-3.3 1.7-7.5 3.1-10.9 4.3l-5.1 1.5-7 2.1-4.4 1-4.9 1-5.4 0.7-4.1 0.2-4.7 0.1h-8.5l-6.1-0.9z"/>
  <path class="cls-0" d="m62.4 125.9 5.8 0.7 5.2 0.1 6.8-0.1 5.2-0.1 7.7-0.5 7.4-1.1 11.5-2.3 5.5-1.9 5.5-1.8 4.1-1.4c6.1-2.4 13.3-6.3 16.4-8.1l0.9-0.5c1.3-0.8 8.6-5.8 12.7-9.2 3.3-2.8 0.8-0.8 2.9-2.5l-4.8 4-3.7 2.7-5.5 3.8c-4.7 2.9-9 5.2-16 8.5l-5.5 2.2-6.6 2.2-5.7 2c-3.8 0.9-6.7 1.4-13.2 2.6-5 0.9-10 1.4-13.3 1.6l-6.7 0.2h-6.1l-5-0.1-5.4-0.5-0.1-0.5z"/>
  <path class="cls-0" d="m96.1 80.1c-2.6 2.5-4.6 5.6-5.6 12-1.3 7.4-0.8 14.9 1.4 24.3l1.7 8.6c0.9 2.6 2.9 6.4 2.4 9.6l-0.1 0.1c0.5-3-1.5-7.1-2.5-9.5l-1.8-8.7c-2.1-11.1-2.2-16.8-0.6-24.9 1.5-6.9 3.7-9.9 5.1-11.5z"/>
  <path class="cls-0" d="m97.6 79c-5.4 2.5-10.6 6.9-15.6 14.8-4.5 6.6-6.6 12.9-6.5 21.3l-0.1 14.9c0.6 3.8 1 7.1 3 11.2v0.3c-1.4-2.7-2.7-7.8-3.2-11.3l-0.2-14.8c0-7.6 1.7-14.4 6.6-22.2 4.9-8 11.1-11.8 14.6-14l1.4-0.2z"/>
  <path class="cls-0" d="m100 78.4 5 11.6c3.5 8.4 4.1 11.7 6.7 17 3 6.2 6.3 12.5 7.5 15.1l-0.1 0.1c-1.2-2.6-4.1-8.8-7.5-15.2-2.2-4.9-4-11.4-6.6-17-2.9-6.8-5-11.4-5-11.4v-0.2z"/>
  <path class="cls-0" d="m100.2 77.9 0.8-0.3c6.1-0.7 13.4 1.4 19.2 7.4 5.5 5.4 11 12.6 13.5 17.1 3.8 6.5 3.4 6.4 5.9 10.9h-0.1c-2.5-4.5-2.5-4.4-6.1-10.6-2.4-4.4-7.8-11.7-13.4-16.9-6.3-5.8-13.4-8.1-19.8-6.9v-0.7z"/>
  <path class="cls-0" d="m133.7 77.7 0.9 0.3c3.5 1 9.4 3.1 11 4.4l-0.1 0.3c-4-2.3-10.1-4.3-11.9-4.7l0.1-0.3z"/>
  <path class="cls-0" d="m117.7 77 3.8 0.7c6.1 1.5 10.9 3.8 16.5 8 6.5 5.2 9.9 9.2 14.5 16.7 2.5 4 2.5 4 3.1 5.5l-0.2 0.2c-0.9-1.7-1-2.1-3.4-5.6-4.3-6.8-7.6-10.9-14.3-16.4s-10-6.5-16.5-8.2l-3.6-0.7 0.1-0.2z"/>
  <path class="cls-0" d="m145.2 84 0.8-0.9 0.5 0.3-0.8 0.7c-1.5 1.6-3.1 2.8-5.6 4.8l-1.1 0.2 6.2-5.1z"/>
  <path class="cls-0" d="m156.4 93.4 1.2-1.5 0.3 0.1-1.3 1.7c-2.6 2.9-6.6 5.9-8 7h-0.6l8.4-7.3z"/>
  <path class="cls-0" d="m119.6 76.4c1-0.7 2.8-0.9 3.5-0.8l-0.5 0.4c-1 0-2.6 1-3.1 1.6l0.1-1.2z"/>
  <path class="cls-0" d="m160.2 92.7 0.3-0.2c4.4 4.6 6.4 8.4 7.5 10.5l-0.1 0.1c-1.7-3.2-4.3-6.7-7.9-10.1l0.2-0.3z"/>
  <path class="cls-0" d="m166.9 103.2 0.1-0.1 0.9 2.1-1.2-2.1 0.2 0.1"/>
  <path class="cls-3" d="m73.6 136.6c0 2.6 2.5 3.8 3.8 3.8v0.5h-10.9v-0.4c1.2 0 3.9-0.8 3.9-3.6v-25.7c0-2.8-2.5-3.2-3.4-3.2v-0.4h10.1v0.4c-0.9 0-3.5 0.6-3.5 3.2v25.4zm1.6-12.1 10.5-13c0.7-0.8 2.5-3.5-1-3.6v-0.4h10.4v0.5c-3.1 0-4.5 1.7-5.7 3.1l-11.2 12.3 12.5 14.6c1.4 1.4 2.9 2.4 5.3 2.5v0.5h-2.8c-2 0-5-0.9-6.6-2.5l-11.4-14z"/>
  <path class="cls-4" d="m98.4 107.6h12.6c4.2 0 10 1.5 10 9 0 2.9-1.8 8.3-7.8 9.3 2.7 1.2 5.2 6.1 7.8 9.1 3 4 6 5.6 7.9 5.9l0.1 0.5h-2.8c-3 0-6.1-1.4-8.2-3.8l-4-5.6c-4.3-6.5-5-6.6-7.1-7.1v-0.5l3.8-0.2c3.3-0.1 6.8-1.8 6.8-7.2 0-4.4-2.4-7.6-6.4-7.9h-5.7v27.9c0.1 3 3.6 3.5 4.1 3.5l-0.1 0.4h-11.2v-0.4c0.7 0 3.9-0.5 3.9-3.3v-26.1c0-2.5-2.9-3-3.7-3v-0.5z"/>
  <path class="cls-5" d="m138 107 12.4 28.4 13.1-28.4h0.7l3.5 30c0.4 2.6 2.5 3.4 4.2 3.5v0.5h-10.4l0.1-0.5c1.6 0 3-0.5 2.6-3l-1.8-22.8-9.4 20.3-3 7h-0.4l-12.2-26.5-2 22.4c-0.2 2.2 1.2 2.5 2.3 2.5v0.6h-9.1l0.3-0.3c1.6-0.1 4.1-0.7 4.3-3l3.2-30.7h0.6z"/>
  <linearGradient id="SVGID_1_" x1="161.6" x2="197" y1="145.4" y2="145.4" gradientUnits="userSpaceOnUse">
    <stop stop-color="#F5A00E" offset="0"/>
    <stop stop-color="#1ED40C" offset=".5207"/>
    <stop stop-color="#AECE37" offset="1"/>
  </linearGradient>
  <path class="cls-6" d="m196.9 146.4c0-1.4-7.5-2.2-11.5-2.2h-0.4l-1.9-3.3 0.8-0.3-0.9-1.9-0.8 0.4-3.8-6.2-0.9-0.7-3-0.2-0.4 0.4 5.8 10.6 0.2 1.1-12.5 1-1.6-2.7-1-0.4-2.6-0.1 2.1 4.3-1.1 1.5-0.5 3.8 2.6-0.4 2.4-3.5 12 0.8 1.2 0.2-3.1 5.5 0.4-0.2-3.2 6.7 3.9-0.6 3.8-6.4 1 0.6 1-1.8-0.9-0.9 1.7-3c4.2 0.4 11.4-0.9 11.2-2.1z"/>
  <path class="cls-7" d="m69.1 154.9h-4.1v-0.2l0.6-0.1v-4.4l-0.6-0.2v-0.3h3.1l0.1-0.1v1.4h-0.2l-0.5-0.8h-1.4v1.8h0.9l0.4-0.5h0.2l-0.1 0.7v0.8h-0.1l-0.4-0.6h-0.9v2.1h1.6l0.7-1h0.2l0.5 1.4z"/>
  <path class="cls-7" d="m70.6 150.1v4.4l0.4 0.1c1.2 0 1.7-1 1.7-2.2 0-1.3-0.5-2.2-2.1-2.3zm0.3 4.8h-1.9v-0.2l0.6-0.1v-4.4l-0.6-0.2v-0.3h1.7c1.7 0 2.9 0.9 2.9 2.5 0 1.4-0.9 2.7-2.7 2.7z"/>
  <path class="cls-7" d="m78.6 150.2v2.8c0 1.1-0.9 2-1.9 2-1.1 0-2.3-0.6-2.3-2l0.1-2.8-0.6-0.2v-0.3h2l-0.3 0.3-0.2 3c0 0.7 0.6 1.4 1.2 1.4 0.8 0 1.5-0.5 1.5-1.4v-2.6l-0.6-0.4v-0.3h1.5l0.1 0.3-0.5 0.2z"/>
  <path class="cls-7" d="m81.7 155c-1.3 0-2.6-0.9-2.6-2.6s1-2.8 2.5-2.8h1.6l0.2 1.6h-0.4l-0.4-0.8c-0.4-0.2-0.6-0.3-1-0.3l-0.4 0.1c-0.6 0.2-1.1 1-1.1 2.2 0 1.1 0.4 2.1 1.6 2.1 0.7 0 1.2-0.3 1.5-0.6l0.2 0.3c-0.4 0.3-0.9 0.8-1.7 0.8z"/>
  <path class="cls-7" d="m85.4 151-0.5 1.6 1.1-0.1-0.6-1.5zm0.5 3.9v-0.2l0.5-0.1-0.4-1.4h-1.4l-0.5 1.4 0.5 0.1-0.2 0.2h-1.3v-0.2l0.4-0.1 1.7-4.7h0.4l1.6 4.7 0.4 0.1-0.1 0.2h-1.6z"/>
  <path class="cls-7" d="m91.6 151.2-0.5-1h-1.1v4.4l0.5 0.1v0.2h-1.6v-0.2l0.2-0.1v-4.4h-0.9l-0.6 1h-0.2v-1.6h4.2v0.1 1.5z"/>
  <path class="cls-7" d="m91.9 154.9v-0.2l0.5-0.1v-4.4l-0.5-0.2v-0.3h1.7v0.3l-0.4 0.2v4.4l0.5 0.1-0.2 0.2z"/>
  <path class="cls-7" d="m96.4 150.2c-0.8 0-1.4 0.9-1.4 2 0 1.2 0.6 2.3 1.6 2.3s1.5-0.8 1.5-2c0-1-0.6-2.3-1.7-2.3zm0 4.8c-1.3 0-2.4-1.1-2.4-2.5 0-1.6 1.1-2.9 2.6-2.9 1.4 0 2.4 1 2.4 2.5 0 1.8-1 2.9-2.6 2.9z"/>
  <path class="cls-7" d="m103.4 150.4 0.1 4.6h-0.4l-3-4v3.6l0.5 0.3-0.1 0.1-1.4-0.1v-0.2l0.5-0.1v-4.1l-0.4-0.5v-0.3h0.9l2.9 3.7v-3.2l-0.6-0.2v-0.3h1.6v0.3l-0.6 0.4z"/>
  <path class="cls-7" d="m105.9 151-0.7 1.6 1.3-0.1-0.6-1.5zm0.5 3.9v-0.2l0.3-0.1-0.1-1.4h-1.5l-0.5 1.4 0.5 0.1-0.1 0.2h-1.3v-0.2l0.4-0.1 1.5-4.7h0.6l1.8 4.7 0.4 0.1-0.2 0.2h-1.8z"/>
  <path class="cls-7" d="m112.2 154.9h-3.7v-0.2l0.5-0.1v-4.4l-0.6-0.2v-0.3h2v0.3l-0.5 0.2v4.3h1.5l0.6-1.1h0.2v1.5z"/>
  <path class="cls-7" d="m116.6 155c-1.2 0-2.5-0.9-2.5-2.6s0.9-2.8 2.4-2.8h1.6l0.3 1.6h-0.4l-0.5-0.8c-0.4-0.2-0.8-0.3-1-0.3l-0.4 0.1c-0.6 0.2-1 1-1 2.2 0 1.1 0.3 2.1 1.5 2.1 0.8 0 1.3-0.3 1.6-0.6l0.3 0.3c-0.4 0.3-1 0.8-1.9 0.8z"/>
  <path class="cls-7" d="m121 150.2c-0.8 0-1.4 0.9-1.4 2 0 1.2 0.6 2.3 1.8 2.3s1.6-1.4 1.6-2c0-1-0.8-2.3-2-2.3zm0.1 4.8c-1.2 0-2.5-1.1-2.5-2.5 0-1.6 1.1-2.9 2.6-2.9s2.5 1 2.5 2.5c0 1.8-1.1 2.9-2.6 2.9z"/>
  <path class="cls-7" d="m128.2 150.4 0.2 4.6h-0.4l-3-4 0.1 3.6 0.5 0.3h-1.5v-0.2l0.5-0.1v-4.1l-0.5-0.5v-0.3h1l2.6 3.7v-3.2l-0.5-0.2 0.2-0.3h1.5l-0.2 0.3-0.5 0.4z"/>
  <path class="cls-7" d="m130.5 155c-0.3 0-0.9-0.1-1.5-0.3v-1.5h0.4l0.5 1 0.7 0.3c0.6 0 1-0.3 1-0.8s-0.2-0.7-0.7-1l-0.8-0.5c-0.5-0.2-1-0.6-1-1.2 0-1 0.8-1.4 1.5-1.4l1.5 0.1v1.4h-0.4l-0.3-0.7-0.8-0.3c-0.4 0-0.7 0.4-0.7 0.8 0 0.3 0.2 0.6 0.7 0.7l0.6 0.4c0.5 0.2 1.2 0.6 1.2 1.5s-0.7 1.5-1.9 1.5z"/>
  <path class="cls-7" d="m136.7 150.2v2.8c0 1.1-0.7 2-1.8 2s-1.9-0.6-1.9-2v-2.8l-0.6-0.2v-0.3h2v0.3l-0.4 0.2v2.8c0 0.7 0.5 1.4 1.1 1.4 0.9 0 1.5-0.5 1.5-1.4v-2.6l-0.6-0.4 0.2-0.3h1.5l-0.2 0.3-0.8 0.2z"/>
  <path class="cls-7" d="m140.6 154.9h-3v-0.3l0.4-0.1v-4.3l-0.5-0.2v-0.3h2v0.3l-0.5 0.2v4.3h1.5l0.5-1.1h0.4v1.5z"/>
  <path class="cls-7" d="m144.4 151.2-0.5-1h-0.9v4.4l0.5 0.1v0.2h-1.9l0.1-0.2 0.4-0.1v-4.4h-1l-0.4 1h-0.3l0.1-1.5h4v1.5z"/>
  <path class="cls-7" d="m146.1 151-0.5 1.6h1.1l-0.6-1.6zm0.5 3.9v-0.2l0.4-0.1-0.4-1.4h-1.2l-0.5 1.4 0.5 0.1-0.2 0.2h-1.2v-0.2l0.4-0.1 1.6-4.7h0.4l1.6 4.7 0.4 0.1-0.2 0.2h-1.6z"/>
  <path class="cls-7" d="m153.2 150.4v4.6h-0.3l-2.9-4v3.6l0.5 0.3-0.1 0.1-1.3-0.1v-0.2l0.4-0.1 0.1-4.1-0.5-0.5v-0.3h0.9l2.7 3.7v-3.2l-0.5-0.2 0.2-0.3h1.3v0.3l-0.5 0.4z"/>
  <path class="cls-7" d="m157.6 151.2-0.5-1h-0.9v4.4l0.4 0.1v0.2h-1.6v-0.2l0.4-0.1v-4.4h-0.9l-0.5 1h-0.3v-1.6h4.2v1.6z"/>
  <path class="cls-7" d="m159.6 155-1.5-0.3v-1.5h0.3l0.5 1 0.7 0.3c0.6 0 1.1-0.3 1.1-0.8s-0.3-0.7-0.8-1l-0.7-0.3c-0.3-0.3-1-0.7-1-1.4 0-1 0.7-1.4 1.7-1.4l1.3 0.1v1.4h-0.3l-0.3-0.7-0.9-0.3c-0.3 0-0.7 0.3-0.7 0.8 0 0.3 0.2 0.6 0.7 0.8l0.8 0.3c0.4 0.2 1 0.6 1 1.5 0 1-0.6 1.5-1.9 1.5z"/>
</svg>